<svg width="195" height="53" viewBox="0 0 195 53" fill="none" xmlns="http://www.w3.org/2000/svg">
    <path d="M20.284 36.335v-2.863l-.128-.537V28.05c0-1.04-.307-1.84-.92-2.403-.597-.58-1.5-.87-2.71-.87-.802 0-1.586.137-2.353.41-.767.255-1.415.605-1.943 1.048l-1.023-1.84c.7-.563 1.534-.99 2.506-1.28.989-.306 2.02-.46 3.094-.46 1.858 0 3.29.452 4.295 1.356 1.006.903 1.509 2.284 1.509 4.142v8.181h-2.327zm-4.449.154c-1.006 0-1.892-.17-2.659-.511-.75-.341-1.33-.81-1.739-1.407a3.65 3.65 0 0 1-.613-2.07c0-.734.17-1.398.511-1.995.358-.597.93-1.074 1.713-1.432.801-.358 1.875-.537 3.222-.537h4.295v1.764h-4.193c-1.227 0-2.054.205-2.48.614a1.98 1.98 0 0 0-.64 1.483c0 .665.265 1.202.793 1.61.529.393 1.262.589 2.2.589.92 0 1.72-.205 2.403-.614.698-.409 1.201-1.005 1.508-1.79l.486 1.688c-.324.801-.895 1.44-1.713 1.917-.818.46-1.85.69-3.094.69zm17.352 0c-1.449 0-2.727-.298-3.835-.895a6.562 6.562 0 0 1-2.557-2.455c-.596-1.04-.895-2.233-.895-3.58 0-1.346.29-2.539.87-3.579a6.393 6.393 0 0 1 2.429-2.429c1.04-.596 2.207-.894 3.502-.894 1.313 0 2.472.29 3.478.869a6.047 6.047 0 0 1 2.352 2.454c.58 1.04.87 2.259.87 3.657 0 .102-.01.221-.026.357 0 .137-.009.265-.026.384H27.818v-1.764H38.07l-.997.613c.017-.869-.162-1.644-.537-2.326a3.988 3.988 0 0 0-1.56-1.585c-.648-.392-1.406-.588-2.276-.588-.852 0-1.61.195-2.275.588a3.947 3.947 0 0 0-1.56 1.61c-.375.682-.562 1.466-.562 2.353v.409c0 .903.204 1.713.613 2.429a4.418 4.418 0 0 0 1.764 1.636c.75.392 1.611.588 2.583.588.801 0 1.525-.136 2.173-.409a4.761 4.761 0 0 0 1.739-1.227l1.355 1.585a5.917 5.917 0 0 1-2.301 1.636c-.904.375-1.918.563-3.043.563zm9.622-.154v-13.55h2.352v3.681l-.23-.92a4.163 4.163 0 0 1 1.892-2.148c.886-.494 1.977-.741 3.273-.741v2.377a1.867 1.867 0 0 0-.307-.025h-.256c-1.313 0-2.352.392-3.12 1.176-.766.784-1.15 1.918-1.15 3.4v6.75H42.81zm15.99.154c-1.363 0-2.573-.298-3.63-.895a6.66 6.66 0 0 1-2.505-2.455c-.614-1.056-.92-2.25-.92-3.58 0-1.346.306-2.539.92-3.579a6.473 6.473 0 0 1 2.505-2.429c1.057-.596 2.267-.894 3.63-.894 1.348 0 2.55.298 3.606.894a6.25 6.25 0 0 1 2.506 2.43c.613 1.022.92 2.215.92 3.579 0 1.347-.307 2.54-.92 3.58a6.425 6.425 0 0 1-2.506 2.454c-1.057.597-2.258.895-3.605.895zm0-2.148c.87 0 1.646-.196 2.328-.588a4.151 4.151 0 0 0 1.636-1.662c.392-.733.588-1.577.588-2.531 0-.972-.196-1.807-.588-2.506a4.15 4.15 0 0 0-1.636-1.662c-.682-.392-1.458-.588-2.327-.588-.87 0-1.645.196-2.327.588a4.38 4.38 0 0 0-1.636 1.662c-.41.7-.614 1.534-.614 2.506 0 .954.205 1.798.614 2.531a4.38 4.38 0 0 0 1.636 1.662c.682.392 1.458.588 2.327.588zm16.026 2.148c-1.312 0-2.489-.29-3.528-.87a6.393 6.393 0 0 1-2.43-2.428c-.596-1.04-.894-2.25-.894-3.631 0-1.38.298-2.582.895-3.605a6.392 6.392 0 0 1 2.429-2.43c1.04-.579 2.216-.868 3.528-.868 1.176 0 2.225.255 3.145.767.92.51 1.645 1.278 2.173 2.3.546 1.023.819 2.302.819 3.836 0 1.534-.282 2.812-.844 3.835-.546 1.023-1.279 1.798-2.2 2.327-.92.511-1.95.767-3.093.767zm.205-2.148c.852 0 1.619-.196 2.3-.588a4.15 4.15 0 0 0 1.637-1.662c.41-.733.614-1.577.614-2.531 0-.972-.205-1.807-.614-2.506a4.15 4.15 0 0 0-1.636-1.662c-.682-.392-1.449-.588-2.301-.588-.87 0-1.645.196-2.327.588a4.379 4.379 0 0 0-1.636 1.662c-.41.7-.614 1.534-.614 2.506 0 .954.205 1.798.614 2.531a4.38 4.38 0 0 0 1.636 1.662c.682.392 1.457.588 2.327.588zm4.525 6.955V32.73l.256-3.145-.153-3.144v-3.657h2.352v18.512h-2.455zm12.8-4.807c-1.158 0-2.181-.213-3.067-.64a4.687 4.687 0 0 1-2.046-1.942c-.477-.887-.716-1.995-.716-3.324v-7.799h2.455v7.517c0 1.33.315 2.327.946 2.992.647.665 1.55.997 2.71.997.852 0 1.594-.17 2.224-.511a3.62 3.62 0 0 0 1.458-1.535c.34-.681.511-1.5.511-2.454v-7.006h2.455v13.551h-2.327V32.68l.384.972a4.741 4.741 0 0 1-1.995 2.096c-.886.495-1.883.742-2.991.742zm18.787 0c-1.159 0-2.207-.256-3.145-.767-.92-.529-1.653-1.304-2.199-2.327-.528-1.023-.792-2.301-.792-3.835 0-1.534.273-2.813.818-3.835.562-1.023 1.304-1.79 2.224-2.302.938-.51 1.969-.766 3.094-.766 1.33 0 2.506.29 3.529.869a6.4 6.4 0 0 1 2.429 2.429c.596 1.023.894 2.224.894 3.605 0 1.38-.298 2.59-.894 3.63a6.4 6.4 0 0 1-2.429 2.43c-1.023.58-2.199.869-3.529.869zm-7.184-.154V17.364h2.454v9.025l-.256 3.145.154 3.145v3.656h-2.352zm6.98-1.994c.869 0 1.645-.196 2.326-.588a4.151 4.151 0 0 0 1.637-1.662c.409-.733.613-1.577.613-2.531 0-.972-.204-1.807-.613-2.506a4.15 4.15 0 0 0-1.637-1.662c-.681-.392-1.457-.588-2.326-.588-.853 0-1.628.196-2.327.588a4.376 4.376 0 0 0-1.636 1.662c-.392.7-.589 1.534-.589 2.506 0 .954.197 1.798.589 2.531.409.716.954 1.27 1.636 1.662a4.673 4.673 0 0 0 2.327.588zm16.482 2.148c-1.449 0-2.727-.298-3.835-.895a6.564 6.564 0 0 1-2.557-2.455c-.597-1.04-.895-2.233-.895-3.58 0-1.346.29-2.539.869-3.579a6.4 6.4 0 0 1 2.429-2.429c1.04-.596 2.208-.894 3.503-.894 1.313 0 2.472.29 3.477.869a6.05 6.05 0 0 1 2.353 2.454c.579 1.04.869 2.259.869 3.657 0 .102-.009.221-.026.357 0 .137-.008.265-.025.384h-11.531v-1.764h10.252l-.997.613c.017-.869-.162-1.644-.537-2.326a3.991 3.991 0 0 0-1.559-1.585c-.648-.392-1.407-.588-2.276-.588-.852 0-1.611.195-2.275.588a3.946 3.946 0 0 0-1.56 1.61c-.375.682-.563 1.466-.563 2.353v.409c0 .903.205 1.713.614 2.429a4.417 4.417 0 0 0 1.764 1.636c.75.392 1.611.588 2.583.588.801 0 1.525-.136 2.173-.409a4.767 4.767 0 0 0 1.739-1.227l1.355 1.585a5.923 5.923 0 0 1-2.301 1.636c-.904.375-1.918.563-3.043.563z" fill="#fff"/>
    <path d="M160.032 7.67c-4.182 0-7.584 3.403-7.584 7.585 0 1.413.391 2.792 1.132 3.988l6.02 9.701a.63.63 0 0 0 .537.3h.005a.632.632 0 0 0 .537-.308l5.867-9.796a7.574 7.574 0 0 0 1.07-3.885c0-4.182-3.403-7.584-7.584-7.584zm5.429 10.821-5.334 8.906-5.473-8.82a6.308 6.308 0 0 1-.951-3.322c0-3.485 2.844-6.329 6.329-6.329 3.484 0 6.324 2.844 6.324 6.329a6.319 6.319 0 0 1-.895 3.236z" fill="#0BB1DC" stroke="#0BB1DC" stroke-width="2.131"/>
    <path d="M142.118 38.312c1.951 3.698 6.548 5.12 10.247 3.169a7.576 7.576 0 0 0 2.999-2.862l5.771-9.852a.63.63 0 0 0 .014-.614l-.002-.004a.634.634 0 0 0-.523-.332l-11.401-.619a7.576 7.576 0 0 0-3.936.867c-3.698 1.951-5.12 6.548-3.169 10.247zm7.037-9.851 10.366.562-5.248 8.956a6.315 6.315 0 0 1-2.494 2.391c-3.083 1.626-6.924.438-8.55-2.644-1.626-3.082-.436-6.92 2.646-8.547a6.317 6.317 0 0 1 3.28-.718z" fill="#0BB1DC" stroke="#0BB1DC" stroke-width="2.131"/>
    <path d="M178.148 38.311c1.951-3.699.529-8.295-3.17-10.246a7.566 7.566 0 0 0-4.055-.86l-11.39.8a.633.633 0 0 0-.515.335l-.002.004a.634.634 0 0 0 .021.619l5.927 9.759a7.571 7.571 0 0 0 2.938 2.759c3.699 1.95 8.295.529 10.246-3.17zm-12.104-.246-5.389-8.872 10.355-.727a6.31 6.31 0 0 1 3.382.71c3.083 1.625 4.271 5.467 2.645 8.55-1.625 3.082-5.465 4.266-8.548 2.64a6.316 6.316 0 0 1-2.445-2.3z" fill="#0BB1DC" stroke="#0BB1DC" stroke-width="2.131"/>
</svg>
